<svg width="35" height="33" viewBox="0 0 35 33" fill="none" xmlns="http://www.w3.org/2000/svg">
<g clip-path="url(#clip0_15_9)">
<path d="M12.7203 8.25H20.7922V10.3125H12.7203V8.25Z" fill="white"/>
<path d="M7.65625 16.5H15.7281V18.5625H7.65625V16.5Z" fill="white"/>
<path d="M17.2922 16.5H20.7812V18.5625H17.2922V16.5ZM7.65625 12.375H17.5V14.4375H7.65625V12.375Z" fill="white"/>
<path d="M14.2188 0C6.36563 0 0 6.00188 0 13.4062C0 20.8106 6.36563 26.8125 14.2188 26.8125C22.0719 26.8125 28.4375 20.8106 28.4375 13.4062C28.4375 9.85069 26.9395 6.44076 24.2729 3.9266C21.6064 1.41244 17.9898 0 14.2188 0ZM14.2188 24.75C7.57422 24.75 2.1875 19.6711 2.1875 13.4062C2.1875 7.14141 7.57422 2.0625 14.2188 2.0625C20.8633 2.0625 26.25 7.14141 26.25 13.4062C26.25 19.6711 20.8633 24.75 14.2188 24.75ZM24.698 24.7428L26.2445 23.2846L34.6752 31.2335L33.1286 32.6917L24.698 24.7428Z" fill="white"/>
</g>
<defs>
<clipPath id="clip0_15_9">
<rect width="35" height="33" fill="white"/>
</clipPath>
</defs>
</svg>
