<svg width="38" height="38" viewBox="0 0 38 38" fill="none" xmlns="http://www.w3.org/2000/svg">
<g clip-path="url(#clip0_23_10)">
<path d="M29.0938 0H8.90625C3.98746 0 0 3.98746 0 8.90625V29.0938C0 34.0125 3.98746 38 8.90625 38H29.0938C34.0125 38 38 34.0125 38 29.0938V8.90625C38 3.98746 34.0125 0 29.0938 0Z" fill="white"/>
<path d="M29.0938 0H8.90625C3.98746 0 0 3.98746 0 8.90625V29.0938C0 34.0125 3.98746 38 8.90625 38H29.0938C34.0125 38 38 34.0125 38 29.0938V8.90625C38 3.98746 34.0125 0 29.0938 0Z" fill="#1D9BF0"/>
<path d="M29.624 13.5688C29.6403 13.8044 29.6403 14.04 29.6403 14.2778C29.6403 21.5211 24.1261 29.8748 14.0432 29.8748V29.8704C11.0646 29.8747 8.14759 29.0216 5.64062 27.413C6.07377 27.4651 6.50898 27.4911 6.94539 27.4921C9.4142 27.4941 11.812 26.666 13.7535 25.141C12.6096 25.1194 11.501 24.7409 10.5828 24.0584C9.66461 23.3758 8.98263 22.4234 8.63223 21.3343C9.4535 21.4927 10.3002 21.4604 11.107 21.2399C8.5497 20.7232 6.70982 18.4763 6.70982 15.8668V15.7973C7.47218 16.2219 8.32539 16.4572 9.19763 16.4834C6.78909 14.8736 6.0466 11.6693 7.50099 9.16393C8.8772 10.8575 10.5943 12.2425 12.5407 13.2292C14.4871 14.2159 16.6192 14.782 18.7987 14.8909C18.5814 13.9556 18.6135 12.9795 18.8918 12.0604C19.1701 11.1413 19.6848 10.3114 20.3845 9.65363C22.5923 7.57817 26.0647 7.6846 28.1402 9.89127C29.3678 9.64891 30.545 9.19887 31.6212 8.56053C31.212 9.82977 30.3556 10.9071 29.2115 11.5922C30.2981 11.4642 31.3593 11.1733 32.3594 10.7294C31.6237 11.8311 30.6974 12.7925 29.624 13.5688Z" fill="white"/>
</g>
<defs>
<clipPath id="clip0_23_10">
<rect width="38" height="38" fill="white"/>
</clipPath>
</defs>
</svg>
